<svg width="42" height="43" viewBox="0 0 42 43" fill="none" xmlns="http://www.w3.org/2000/svg">
<path opacity="0.2" d="M34.125 6.8783H28.875C28.1501 6.8783 27.5625 7.46592 27.5625 8.1908V13.4408C27.5625 14.1657 28.1501 14.7533 28.875 14.7533H34.125C34.8499 14.7533 35.4375 14.1657 35.4375 13.4408V8.1908C35.4375 7.46592 34.8499 6.8783 34.125 6.8783Z" fill="#009379"/>
<path opacity="0.2" d="M7.875 6.9408H13.125C13.8154 6.9408 14.375 7.50044 14.375 8.1908V13.4408C14.375 14.1312 13.8154 14.6908 13.125 14.6908H7.875C7.18464 14.6908 6.625 14.1312 6.625 13.4408V8.1908C6.625 7.50044 7.18464 6.9408 7.875 6.9408Z" fill="#009379" stroke="#009379" stroke-width="0.125"/>
<path opacity="0.2" d="M28.875 27.9408H34.125C34.8154 27.9408 35.375 28.5004 35.375 29.1908V34.4408C35.375 35.1312 34.8154 35.6908 34.125 35.6908H28.875C28.1846 35.6908 27.625 35.1312 27.625 34.4408V29.1908C27.625 28.5004 28.1846 27.9408 28.875 27.9408Z" fill="#009379" stroke="#009379" stroke-width="0.125"/>
<path opacity="0.2" d="M7.875 27.9408H13.125C13.8154 27.9408 14.375 28.5004 14.375 29.1908V34.4408C14.375 35.1312 13.8154 35.6908 13.125 35.6908H7.875C7.18464 35.6908 6.625 35.1312 6.625 34.4408V29.1908C6.625 28.5004 7.18464 27.9408 7.875 27.9408Z" fill="#009379" stroke="#009379" stroke-width="0.125"/>
<path d="M34.125 6.8783H28.875C28.1501 6.8783 27.5625 7.46592 27.5625 8.1908V13.4408C27.5625 14.1657 28.1501 14.7533 28.875 14.7533H34.125C34.8499 14.7533 35.4375 14.1657 35.4375 13.4408V8.1908C35.4375 7.46592 34.8499 6.8783 34.125 6.8783Z" stroke="#009379" stroke-width="2" stroke-linecap="round" stroke-linejoin="round"/>
<path d="M13.125 6.8783H7.875C7.15013 6.8783 6.5625 7.46592 6.5625 8.1908V13.4408C6.5625 14.1657 7.15013 14.7533 7.875 14.7533H13.125C13.8499 14.7533 14.4375 14.1657 14.4375 13.4408V8.1908C14.4375 7.46592 13.8499 6.8783 13.125 6.8783Z" stroke="#009379" stroke-width="2" stroke-linecap="round" stroke-linejoin="round"/>
<path d="M34.125 27.8783H28.875C28.1501 27.8783 27.5625 28.4659 27.5625 29.1908V34.4408C27.5625 35.1657 28.1501 35.7533 28.875 35.7533H34.125C34.8499 35.7533 35.4375 35.1657 35.4375 34.4408V29.1908C35.4375 28.4659 34.8499 27.8783 34.125 27.8783Z" stroke="#009379" stroke-width="2" stroke-linecap="round" stroke-linejoin="round"/>
<path d="M13.125 27.8783H7.875C7.15013 27.8783 6.5625 28.4659 6.5625 29.1908V34.4408C6.5625 35.1657 7.15013 35.7533 7.875 35.7533H13.125C13.8499 35.7533 14.4375 35.1657 14.4375 34.4408V29.1908C14.4375 28.4659 13.8499 27.8783 13.125 27.8783Z" stroke="#009379" stroke-width="2" stroke-linecap="round" stroke-linejoin="round"/>
<path d="M10.5 27.8783V14.7533" stroke="#009379" stroke-width="2" stroke-linecap="round" stroke-linejoin="round"/>
<path d="M27.5625 31.8158H14.4375" stroke="#009379" stroke-width="2" stroke-linecap="round" stroke-linejoin="round"/>
<path d="M31.5 14.7533V27.8783" stroke="#009379" stroke-width="2" stroke-linecap="round" stroke-linejoin="round"/>
<path d="M14.4375 10.8158H27.5625" stroke="#009379" stroke-width="2" stroke-linecap="round" stroke-linejoin="round"/>
</svg>
