<svg width="42" height="43" viewBox="0 0 42 43" fill="none" xmlns="http://www.w3.org/2000/svg">
<path opacity="0.2" d="M16.8 32.8658L9.45 25.5158L6.21797 34.4244C6.12862 34.6582 6.10885 34.9128 6.16105 35.1575C6.21325 35.4023 6.3352 35.6267 6.51216 35.8037C6.68911 35.9806 6.91352 36.1026 7.15827 36.1548C7.40302 36.207 7.65765 36.1872 7.89141 36.0978L16.8 32.8658Z" fill="#F8D57E"/>
<path opacity="0.2" d="M32.6207 25.1498L32.6208 25.15C32.7705 25.2983 32.8802 25.4821 32.9397 25.6842C32.9993 25.8863 33.0069 26.1001 32.9617 26.3059C32.9164 26.5117 32.82 26.7027 32.6812 26.8612C32.5423 27.0197 32.3657 27.1405 32.1677 27.2125L25.4786 29.6434L12.6723 16.8372L15.1033 10.1481C15.1752 9.95005 15.2961 9.77343 15.4546 9.63463C15.6131 9.49583 15.8041 9.39934 16.0099 9.35413C16.2157 9.30892 16.4295 9.31646 16.6316 9.37604C16.8337 9.43562 17.0174 9.54532 17.1658 9.69494L17.166 9.69513L32.6207 25.1498Z" fill="#F8D57E" stroke="#F8D57E" stroke-width="0.125"/>
<path d="M6.21797 34.4244L15.0445 10.1267C15.1201 9.9188 15.247 9.73335 15.4134 9.58761C15.5798 9.44187 15.7804 9.34055 15.9965 9.29308C16.2125 9.24562 16.4371 9.25353 16.6493 9.31609C16.8615 9.37865 17.0544 9.49384 17.2102 9.65093L32.6648 25.1056C32.8219 25.2614 32.9371 25.4543 32.9997 25.6665C33.0622 25.8787 33.0702 26.1032 33.0227 26.3193C32.9752 26.5354 32.8739 26.7359 32.7282 26.9024C32.5824 27.0688 32.397 27.1957 32.1891 27.2712L7.89141 36.0978C7.65765 36.1872 7.40302 36.2069 7.15827 36.1547C6.91352 36.1025 6.68911 35.9806 6.51216 35.8036C6.3352 35.6267 6.21325 35.4023 6.16105 35.1575C6.10885 34.9128 6.12862 34.6581 6.21797 34.4244V34.4244Z" stroke="#F8D57E" stroke-width="2" stroke-linecap="round" stroke-linejoin="round"/>
<path d="M27.5625 12.1283C27.5625 12.1283 27.5625 8.1908 31.5 8.1908C35.4375 8.1908 35.4375 4.2533 35.4375 4.2533" stroke="#F8D57E" stroke-width="2" stroke-linecap="round" stroke-linejoin="round"/>
<path d="M16.8 32.8658L9.45 25.5158" stroke="#F8D57E" stroke-width="2" stroke-linecap="round" stroke-linejoin="round"/>
<path d="M23.625 2.9408V6.8783" stroke="#F8D57E" stroke-width="2" stroke-linecap="round" stroke-linejoin="round"/>
<path d="M35.4375 18.6908L38.0625 21.3158" stroke="#F8D57E" stroke-width="2" stroke-linecap="round" stroke-linejoin="round"/>
<path d="M35.4375 13.4408L39.375 12.1283" stroke="#F8D57E" stroke-width="2" stroke-linecap="round" stroke-linejoin="round"/>
<path d="M12.6 16.8533L25.4625 29.7158" stroke="#F8D57E" stroke-width="2" stroke-linecap="round" stroke-linejoin="round"/>
</svg>
