<svg width="42" height="43" viewBox="0 0 42 43" fill="none" xmlns="http://www.w3.org/2000/svg">
<path opacity="0.2" d="M11.4352 36.1306C11.3131 36.2547 11.1675 36.3531 11.0069 36.4204C10.8464 36.4876 10.6741 36.5222 10.5 36.5222C10.326 36.5222 10.1537 36.4876 9.99313 36.4204C9.83258 36.3531 9.68701 36.2547 9.56488 36.1306L6.1852 32.751C6.06118 32.6288 5.9627 32.4833 5.89548 32.3227C5.82826 32.1622 5.79364 31.9898 5.79364 31.8158C5.79364 31.6417 5.82826 31.4694 5.89548 31.3089C5.9627 31.1483 6.06118 31.0028 6.1852 30.8806L23.625 13.4408L28.875 18.6908L11.4352 36.1306Z" fill="#FF6250"/>
<path d="M35.4375 21.3158V29.1908" stroke="#FF6250" stroke-width="2.375" stroke-linecap="round" stroke-linejoin="round"/>
<path d="M31.5 25.2533H39.375" stroke="#FF6250" stroke-width="2.375" stroke-linecap="round" stroke-linejoin="round"/>
<path d="M13.7812 6.8783V13.4408" stroke="#FF6250" stroke-width="2.375" stroke-linecap="round" stroke-linejoin="round"/>
<path d="M10.5 10.1595H17.0625" stroke="#FF6250" stroke-width="2.375" stroke-linecap="round" stroke-linejoin="round"/>
<path d="M27.5625 30.5033V35.7533" stroke="#FF6250" stroke-width="2.375" stroke-linecap="round" stroke-linejoin="round"/>
<path d="M24.9375 33.1283H30.1875" stroke="#FF6250" stroke-width="2.375" stroke-linecap="round" stroke-linejoin="round"/>
<path d="M30.5856 6.48978L6.18876 30.8866C5.6762 31.3992 5.6762 32.2302 6.18876 32.7428L9.58204 36.1361C10.0946 36.6486 10.9256 36.6486 11.4382 36.1361L35.835 11.7392C36.3476 11.2267 36.3476 10.3956 35.835 9.88306L32.4418 6.48978C31.9292 5.97722 31.0982 5.97722 30.5856 6.48978Z" stroke="#FF6250" stroke-width="2.375" stroke-linecap="round" stroke-linejoin="round"/>
<path d="M23.625 13.4408L28.875 18.6908" stroke="#FF6250" stroke-width="2.375" stroke-linecap="round" stroke-linejoin="round"/>
</svg>
