<svg width="18" height="18" viewBox="0 0 18 18" fill="none" xmlns="http://www.w3.org/2000/svg">
<path fill-rule="evenodd" clip-rule="evenodd" d="M17.5333 9.38869C17.5333 9.96578 17.4746 10.5421 17.3592 11.1038C17.2467 11.6522 17.08 12.1906 16.8617 12.7053C16.6483 13.2109 16.3837 13.6981 16.0745 14.1525C15.77 14.604 15.4191 15.0275 15.0337 15.4137C14.6474 15.7981 14.2224 16.148 13.7711 16.4539C13.3152 16.7609 12.8273 17.0251 12.3215 17.2394C11.806 17.4566 11.2664 17.6231 10.7184 17.7354C10.1559 17.8511 9.57755 17.9102 8.99962 17.9102C8.42126 17.9102 7.8429 17.8511 7.28121 17.7354C6.73244 17.6231 6.19283 17.4566 5.67779 17.2394C5.17195 17.0251 4.68357 16.7609 4.22772 16.4539C3.77645 16.148 3.35143 15.7981 2.96599 15.4137C2.58015 15.0275 2.22928 14.604 1.92427 14.1525C1.61675 13.6981 1.35172 13.2109 1.13755 12.7053C0.919183 12.1906 0.752114 11.6522 0.639188 11.1038C0.525025 10.5421 0.466675 9.96578 0.466675 9.38869C0.466675 8.81116 0.524992 8.23364 0.639221 7.67312C0.752147 7.12471 0.919216 6.58548 1.13759 6.07162C1.35175 5.56567 1.61678 5.07803 1.9243 4.62364C2.22931 4.17178 2.58018 3.74901 2.96602 3.36246C3.35146 2.97798 3.77648 2.62891 4.22775 2.32351C4.6836 2.01517 5.17198 1.75099 5.67783 1.53626C6.19286 1.31861 6.73244 1.15178 7.28124 1.04029C7.84294 0.925454 8.4213 0.867188 8.99966 0.867188C9.57758 0.867188 10.1559 0.925454 10.7185 1.04029C11.2664 1.15181 11.806 1.31864 12.3215 1.53626C12.8273 1.75095 13.3153 2.01517 13.7711 2.32351C14.2224 2.62891 14.6475 2.97798 15.0337 3.36246C15.4191 3.74901 15.77 4.17178 16.0746 4.62364C16.3837 5.07803 16.6483 5.5657 16.8617 6.07162C17.08 6.58548 17.2467 7.12471 17.3592 7.67312C17.4746 8.23364 17.5333 8.81116 17.5333 9.38869ZM5.89026 2.80657C3.85805 3.76484 2.34131 5.63473 1.86836 7.88826C2.06048 7.88993 5.0973 7.92822 8.59622 6.9999C7.33492 4.76217 5.98735 2.93601 5.89026 2.80657ZM9.2 8.12047C5.44774 9.2422 1.84711 9.16149 1.71795 9.15652C1.71585 9.23473 1.71211 9.31044 1.71211 9.38868C1.71211 11.2581 2.41839 12.9624 3.57929 14.2511C3.57678 14.2473 5.57108 10.7143 9.50377 9.44445C9.59876 9.41283 9.69546 9.38451 9.79128 9.35706C9.60838 8.9435 9.40875 8.52906 9.2 8.12047ZM13.8124 3.92711C12.5293 2.7974 10.8447 2.11215 8.9996 2.11215C8.40748 2.11215 7.83286 2.18372 7.28242 2.31603C7.39157 2.46251 8.76042 4.2758 10.0067 6.56092C12.7565 5.53154 13.7944 3.95372 13.8124 3.92711ZM10.288 10.5629C10.2718 10.5683 10.2556 10.5729 10.2397 10.5787C5.93997 12.0755 4.53583 15.0919 4.52064 15.1249C5.75781 16.0856 7.30956 16.6652 8.99965 16.6652C10.0088 16.6652 10.9701 16.46 11.8448 16.0885C11.7368 15.4527 11.3135 13.2242 10.288 10.5629ZM13.0719 15.4236C14.7082 14.321 15.8703 12.5701 16.1945 10.542C16.0445 10.4938 14.0057 9.84925 11.6535 10.2258C12.6093 12.8489 12.9977 14.9851 13.0719 15.4236ZM10.5676 7.64527C10.7368 7.99229 10.9006 8.34549 11.0518 8.70046C11.1056 8.8278 11.1581 8.95264 11.2093 9.07744C13.7128 8.76286 16.1792 9.29213 16.2846 9.31374C16.2679 7.58867 15.65 6.00544 14.6275 4.76594C14.6137 4.78545 13.4449 6.47187 10.5676 7.64527Z" fill="#2D2D2D"/>
</svg>
